<svg width="187" height="91" viewBox="0 0 187 91" fill="none" xmlns="http://www.w3.org/2000/svg">
<rect x="1.5" y="19" width="184" height="70" rx="13.5" fill="white" stroke="#A04D4D" stroke-width="3"/>
<line x1="25.5" y1="34" x2="25.5" y2="88" stroke="black" stroke-opacity="0.08"/>
<line x1="184" y1="60.5" x2="3" y2="60.5" stroke="black" stroke-opacity="0.08"/>
<line x1="48.5" y1="34" x2="48.5" y2="88" stroke="black" stroke-opacity="0.08"/>
<line x1="71.5" y1="34" x2="71.5" y2="88" stroke="black" stroke-opacity="0.08"/>
<line x1="94.5" y1="34" x2="94.5" y2="88" stroke="black" stroke-opacity="0.08"/>
<line x1="117.5" y1="34" x2="117.5" y2="88" stroke="black" stroke-opacity="0.08"/>
<line x1="140.5" y1="34" x2="140.5" y2="88" stroke="black" stroke-opacity="0.08"/>
<line x1="163.5" y1="34" x2="163.5" y2="88" stroke="black" stroke-opacity="0.08"/>
<rect x="159" y="29.5" width="25" height="54" rx="12.5" fill="url(#paint0_linear_603_113)"/>
<rect x="26" y="85.5" width="23" height="52" rx="11.5" transform="rotate(180 26 85.5)" fill="url(#paint1_linear_603_113)"/>
<path d="M0 31.5C0 24.8726 5.37258 19.5 12 19.5H175C181.627 19.5 187 24.8726 187 31.5V34.5H0V31.5Z" fill="#A04D4D"/>
<path d="M0 29.5C0 22.8726 5.37258 17.5 12 17.5H175C181.627 17.5 187 22.8726 187 29.5V31.5H0V29.5Z" fill="#CB7F7F"/>
<rect x="169" y="78.5" width="9.00001" height="152" rx="4.5" transform="rotate(90 169 78.5)" fill="url(#paint2_linear_603_113)"/>
<mask id="path-15-outside-1_603_113" maskUnits="userSpaceOnUse" x="9" y="36.5" width="172" height="48" fill="black">
<rect fill="white" x="9" y="36.5" width="172" height="48"/>
<path d="M15 42.52C16.6133 42.52 17.8733 43.0333 18.78 44.06C19.7 45.0733 20.16 46.44 20.16 48.16C20.16 49.9467 19.7067 51.34 18.8 52.34C17.8933 53.34 16.6267 53.84 15 53.84C13.3733 53.84 12.1067 53.3467 11.2 52.36C10.2933 51.36 9.84 49.9667 9.84 48.18C9.84 47.0467 10.04 46.06 10.44 45.22C10.8533 44.3667 11.4467 43.7067 12.22 43.24C13.0067 42.76 13.9333 42.52 15 42.52ZM15 44.86C14.3467 44.86 13.8667 45.1267 13.56 45.66C13.2533 46.18 13.1 47.02 13.1 48.18C13.1 49.3533 13.2533 50.2067 13.56 50.74C13.8667 51.26 14.3467 51.52 15 51.52C15.6533 51.52 16.1333 51.2533 16.44 50.72C16.7467 50.1867 16.9 49.3333 16.9 48.16C16.9 47.0133 16.7467 46.18 16.44 45.66C16.1333 45.1267 15.6533 44.86 15 44.86ZM41.2922 42.56C41.9322 42.56 42.5189 42.6667 43.0522 42.88L42.4722 47.32H40.4722V45.36C39.8855 45.4667 39.3655 45.7867 38.9122 46.32C38.4589 46.8533 38.1055 47.5267 37.8522 48.34V51.38H39.9522V53.5H33.2922V51.38H34.6922V44.98H33.2922V42.88H37.1122L37.6722 45.26C38.0589 44.3533 38.5455 43.68 39.1322 43.24C39.7189 42.7867 40.4389 42.56 41.2922 42.56ZM66.1444 43.5C65.451 43.78 64.431 43.92 63.0844 43.92C63.7777 44.2267 64.291 44.5933 64.6244 45.02C64.971 45.4467 65.1444 45.9933 65.1444 46.66C65.1444 47.34 64.9577 47.9533 64.5844 48.5C64.211 49.0333 63.6844 49.4533 63.0044 49.76C62.3244 50.0667 61.5377 50.22 60.6444 50.22C60.2044 50.22 59.791 50.18 59.4044 50.1C59.2977 50.1533 59.211 50.24 59.1444 50.36C59.091 50.4667 59.0644 50.58 59.0644 50.7C59.0644 50.9 59.1377 51.06 59.2844 51.18C59.4444 51.2867 59.7577 51.34 60.2244 51.34H61.9844C62.7844 51.34 63.491 51.4733 64.1044 51.74C64.7177 52.0067 65.191 52.3733 65.5244 52.84C65.8577 53.3067 66.0244 53.8333 66.0244 54.42C66.0244 55.5267 65.5377 56.3867 64.5644 57C63.6044 57.6267 62.1977 57.94 60.3444 57.94C59.0244 57.94 57.9844 57.8 57.2244 57.52C56.4777 57.2533 55.951 56.8733 55.6444 56.38C55.351 55.8867 55.2044 55.2667 55.2044 54.52H58.0044C58.0044 54.8533 58.0644 55.1133 58.1844 55.3C58.3177 55.4867 58.5577 55.6267 58.9044 55.72C59.251 55.8133 59.7577 55.86 60.4244 55.86C61.3577 55.86 61.9977 55.7533 62.3444 55.54C62.7044 55.3267 62.8844 55.0267 62.8844 54.64C62.8844 54.32 62.751 54.06 62.4844 53.86C62.231 53.6733 61.851 53.58 61.3444 53.58H59.6644C58.571 53.58 57.751 53.3867 57.2044 53C56.6577 52.6 56.3844 52.0933 56.3844 51.48C56.3844 51.08 56.4844 50.7067 56.6844 50.36C56.8977 50 57.191 49.7 57.5644 49.46C56.8977 49.1 56.4177 48.68 56.1244 48.2C55.831 47.7067 55.6844 47.1133 55.6844 46.42C55.6844 45.6333 55.8844 44.9467 56.2844 44.36C56.6844 43.7733 57.2444 43.3267 57.9644 43.02C58.6844 42.7 59.5044 42.54 60.4244 42.54C61.491 42.5667 62.3977 42.4667 63.1444 42.24C63.891 42 64.651 41.6467 65.4244 41.18L66.1444 43.5ZM60.5044 44.6C59.9977 44.6 59.5977 44.76 59.3044 45.08C59.0244 45.4 58.8844 45.8333 58.8844 46.38C58.8844 46.9533 59.031 47.4 59.3244 47.72C59.6177 48.04 60.011 48.2 60.5044 48.2C61.0244 48.2 61.4244 48.0467 61.7044 47.74C61.9844 47.42 62.1244 46.9533 62.1244 46.34C62.1244 45.18 61.5844 44.6 60.5044 44.6ZM87.7166 50.44C87.7166 50.8267 87.7699 51.1133 87.8766 51.3C87.9832 51.4867 88.1632 51.6267 88.4166 51.72L87.7566 53.8C87.1166 53.7333 86.5832 53.5933 86.1566 53.38C85.7299 53.1533 85.3966 52.8267 85.1566 52.4C84.7566 52.8667 84.2499 53.2267 83.6366 53.48C83.0232 53.72 82.3699 53.84 81.6766 53.84C80.5832 53.84 79.7099 53.5333 79.0566 52.92C78.4032 52.2933 78.0766 51.4867 78.0766 50.5C78.0766 49.3533 78.5299 48.4667 79.4366 47.84C80.3432 47.2 81.6166 46.88 83.2566 46.88H84.6766V46.5C84.6766 45.4067 83.9766 44.86 82.5766 44.86C82.2166 44.86 81.7632 44.9133 81.2166 45.02C80.6832 45.1133 80.1632 45.2467 79.6566 45.42L78.9366 43.32C79.6166 43.0667 80.3232 42.8733 81.0566 42.74C81.8032 42.5933 82.4766 42.52 83.0766 42.52C86.1699 42.52 87.7166 43.7733 87.7166 46.28V50.44ZM82.7566 51.58C83.1166 51.58 83.4766 51.48 83.8366 51.28C84.2099 51.0667 84.4899 50.78 84.6766 50.42V48.68H83.8966C82.1899 48.68 81.3366 49.2133 81.3366 50.28C81.3366 50.6933 81.4566 51.0133 81.6966 51.24C81.9499 51.4667 82.3032 51.58 82.7566 51.58ZM101.569 42.88H104.329L104.549 44.1C105.029 43.5667 105.529 43.1733 106.049 42.92C106.582 42.6533 107.182 42.52 107.849 42.52C108.769 42.52 109.482 42.8 109.989 43.36C110.509 43.92 110.769 44.7 110.769 45.7V53.5H107.609V46.62C107.609 45.9533 107.535 45.4933 107.389 45.24C107.242 44.9867 106.975 44.86 106.589 44.86C106.269 44.86 105.955 44.9667 105.649 45.18C105.355 45.38 105.049 45.68 104.729 46.08V53.5H101.569V42.88ZM128.941 37.32C129.488 37.32 129.934 37.4933 130.281 37.84C130.628 38.1733 130.801 38.5933 130.801 39.1C130.801 39.62 130.628 40.0467 130.281 40.38C129.934 40.7133 129.488 40.88 128.941 40.88C128.394 40.88 127.941 40.7133 127.581 40.38C127.234 40.0333 127.061 39.6067 127.061 39.1C127.061 38.5933 127.234 38.1733 127.581 37.84C127.941 37.4933 128.394 37.32 128.941 37.32ZM130.841 51.34H133.561V53.5H124.681V51.34H127.681V45.04H124.781V42.88H130.841V51.34ZM156.233 51.1L155.933 53.5H147.193V51.26L152.473 45.26H147.633V42.88H156.133V45.1L150.933 51.1H156.233ZM172.685 49.12C172.885 50.7333 173.739 51.54 175.245 51.54C176.152 51.54 177.059 51.2467 177.965 50.66L179.225 52.38C178.705 52.8333 178.085 53.1933 177.365 53.46C176.645 53.7133 175.852 53.84 174.985 53.84C173.799 53.84 172.792 53.6067 171.965 53.14C171.139 52.66 170.512 52 170.085 51.16C169.672 50.3067 169.465 49.32 169.465 48.2C169.465 47.1333 169.665 46.1733 170.065 45.32C170.479 44.4533 171.072 43.7733 171.845 43.28C172.632 42.7733 173.565 42.52 174.645 42.52C175.659 42.52 176.539 42.74 177.285 43.18C178.032 43.6067 178.605 44.2333 179.005 45.06C179.419 45.8733 179.625 46.8467 179.625 47.98C179.625 48.42 179.605 48.8 179.565 49.12H172.685ZM174.645 44.64C174.072 44.64 173.612 44.8533 173.265 45.28C172.919 45.6933 172.712 46.3333 172.645 47.2H176.545C176.519 45.4933 175.885 44.64 174.645 44.64ZM12.78 77.6C12.78 77 12.9933 76.48 13.42 76.04C13.86 75.6 14.3867 75.38 15 75.38C15.6133 75.38 16.1333 75.6 16.56 76.04C17 76.48 17.22 77 17.22 77.6C17.22 78.2133 17 78.74 16.56 79.18C16.1333 79.62 15.6133 79.84 15 79.84C14.3867 79.84 13.86 79.62 13.42 79.18C12.9933 78.74 12.78 78.2133 12.78 77.6ZM39.0722 68.52C40.4055 68.52 41.3855 69.0133 42.0122 70C42.6389 70.9733 42.9522 72.36 42.9522 74.16C42.9522 75.2533 42.7855 76.2333 42.4522 77.1C42.1322 77.9533 41.6655 78.6267 41.0522 79.12C40.4389 79.6 39.7122 79.84 38.8722 79.84C37.8455 79.84 37.0055 79.4733 36.3522 78.74V83.6L33.1922 83.94V68.88H35.9922L36.1322 70.06C36.5455 69.54 37.0055 69.1533 37.5122 68.9C38.0322 68.6467 38.5522 68.52 39.0722 68.52ZM38.0922 70.86C37.4255 70.86 36.8455 71.2733 36.3522 72.1V76.58C36.5789 76.9 36.8122 77.14 37.0522 77.3C37.3055 77.4467 37.5922 77.52 37.9122 77.52C38.4989 77.52 38.9389 77.26 39.2322 76.74C39.5389 76.2067 39.6922 75.36 39.6922 74.2C39.6922 72.9467 39.5589 72.08 39.2922 71.6C39.0255 71.1067 38.6255 70.86 38.0922 70.86ZM64.9244 76.44C64.9244 76.8267 64.9777 77.1133 65.0844 77.3C65.191 77.4867 65.371 77.6267 65.6244 77.72L64.9644 79.8C64.3244 79.7333 63.791 79.5933 63.3644 79.38C62.9377 79.1533 62.6044 78.8267 62.3644 78.4C61.9644 78.8667 61.4577 79.2267 60.8444 79.48C60.231 79.72 59.5777 79.84 58.8844 79.84C57.791 79.84 56.9177 79.5333 56.2644 78.92C55.611 78.2933 55.2844 77.4867 55.2844 76.5C55.2844 75.3533 55.7377 74.4667 56.6444 73.84C57.551 73.2 58.8244 72.88 60.4644 72.88H61.8844V72.5C61.8844 71.4067 61.1844 70.86 59.7844 70.86C59.4244 70.86 58.971 70.9133 58.4244 71.02C57.891 71.1133 57.371 71.2467 56.8644 71.42L56.1444 69.32C56.8244 69.0667 57.531 68.8733 58.2644 68.74C59.011 68.5933 59.6844 68.52 60.2844 68.52C63.3777 68.52 64.9244 69.7733 64.9244 72.28V76.44ZM59.9644 77.58C60.3244 77.58 60.6844 77.48 61.0444 77.28C61.4177 77.0667 61.6977 76.78 61.8844 76.42V74.68H61.1044C59.3977 74.68 58.5444 75.2133 58.5444 76.28C58.5444 76.6933 58.6644 77.0133 58.9044 77.24C59.1577 77.4667 59.511 77.58 59.9644 77.58ZM86.8766 68.56C87.5166 68.56 88.1032 68.6667 88.6366 68.88L88.0566 73.32H86.0566V71.36C85.4699 71.4667 84.9499 71.7867 84.4966 72.32C84.0432 72.8533 83.6899 73.5267 83.4366 74.34V77.38H85.5366V79.5H78.8766V77.38H80.2766V70.98H78.8766V68.88H82.6966L83.2566 71.26C83.6432 70.3533 84.1299 69.68 84.7166 69.24C85.3032 68.7867 86.0232 68.56 86.8766 68.56ZM111.129 78.88C110.129 79.52 108.969 79.84 107.649 79.84C106.289 79.84 105.262 79.4933 104.569 78.8C103.889 78.1067 103.549 77.1333 103.549 75.88V71.06H101.329V68.88H103.549V66.58L106.709 66.2V68.88H110.129L109.809 71.06H106.709V75.88C106.709 76.4 106.829 76.7733 107.069 77C107.309 77.2267 107.695 77.34 108.229 77.34C108.895 77.34 109.515 77.18 110.089 76.86L111.129 78.88ZM130.861 79.5C130.381 80.9267 129.668 82 128.721 82.72C127.774 83.4533 126.508 83.8667 124.921 83.96L124.561 81.72C125.574 81.5867 126.321 81.36 126.801 81.04C127.294 80.72 127.688 80.2067 127.981 79.5H126.881L123.521 68.88H126.861L128.921 77.48L131.161 68.88H134.401L130.861 79.5Z"/>
</mask>
<path d="M15 42.52C16.6133 42.52 17.8733 43.0333 18.78 44.06C19.7 45.0733 20.16 46.44 20.16 48.16C20.16 49.9467 19.7067 51.34 18.8 52.34C17.8933 53.34 16.6267 53.84 15 53.84C13.3733 53.84 12.1067 53.3467 11.2 52.36C10.2933 51.36 9.84 49.9667 9.84 48.18C9.84 47.0467 10.04 46.06 10.44 45.22C10.8533 44.3667 11.4467 43.7067 12.22 43.24C13.0067 42.76 13.9333 42.52 15 42.52ZM15 44.86C14.3467 44.86 13.8667 45.1267 13.56 45.66C13.2533 46.18 13.1 47.02 13.1 48.18C13.1 49.3533 13.2533 50.2067 13.56 50.74C13.8667 51.26 14.3467 51.52 15 51.52C15.6533 51.52 16.1333 51.2533 16.44 50.72C16.7467 50.1867 16.9 49.3333 16.9 48.16C16.9 47.0133 16.7467 46.18 16.44 45.66C16.1333 45.1267 15.6533 44.86 15 44.86ZM41.2922 42.56C41.9322 42.56 42.5189 42.6667 43.0522 42.88L42.4722 47.32H40.4722V45.36C39.8855 45.4667 39.3655 45.7867 38.9122 46.32C38.4589 46.8533 38.1055 47.5267 37.8522 48.34V51.38H39.9522V53.5H33.2922V51.38H34.6922V44.98H33.2922V42.88H37.1122L37.6722 45.26C38.0589 44.3533 38.5455 43.68 39.1322 43.24C39.7189 42.7867 40.4389 42.56 41.2922 42.56ZM66.1444 43.5C65.451 43.78 64.431 43.92 63.0844 43.92C63.7777 44.2267 64.291 44.5933 64.6244 45.02C64.971 45.4467 65.1444 45.9933 65.1444 46.66C65.1444 47.34 64.9577 47.9533 64.5844 48.5C64.211 49.0333 63.6844 49.4533 63.0044 49.76C62.3244 50.0667 61.5377 50.22 60.6444 50.22C60.2044 50.22 59.791 50.18 59.4044 50.1C59.2977 50.1533 59.211 50.24 59.1444 50.36C59.091 50.4667 59.0644 50.58 59.0644 50.7C59.0644 50.9 59.1377 51.06 59.2844 51.18C59.4444 51.2867 59.7577 51.34 60.2244 51.34H61.9844C62.7844 51.34 63.491 51.4733 64.1044 51.74C64.7177 52.0067 65.191 52.3733 65.5244 52.84C65.8577 53.3067 66.0244 53.8333 66.0244 54.42C66.0244 55.5267 65.5377 56.3867 64.5644 57C63.6044 57.6267 62.1977 57.94 60.3444 57.94C59.0244 57.94 57.9844 57.8 57.2244 57.52C56.4777 57.2533 55.951 56.8733 55.6444 56.38C55.351 55.8867 55.2044 55.2667 55.2044 54.52H58.0044C58.0044 54.8533 58.0644 55.1133 58.1844 55.3C58.3177 55.4867 58.5577 55.6267 58.9044 55.72C59.251 55.8133 59.7577 55.86 60.4244 55.86C61.3577 55.86 61.9977 55.7533 62.3444 55.54C62.7044 55.3267 62.8844 55.0267 62.8844 54.64C62.8844 54.32 62.751 54.06 62.4844 53.86C62.231 53.6733 61.851 53.58 61.3444 53.58H59.6644C58.571 53.58 57.751 53.3867 57.2044 53C56.6577 52.6 56.3844 52.0933 56.3844 51.48C56.3844 51.08 56.4844 50.7067 56.6844 50.36C56.8977 50 57.191 49.7 57.5644 49.46C56.8977 49.1 56.4177 48.68 56.1244 48.2C55.831 47.7067 55.6844 47.1133 55.6844 46.42C55.6844 45.6333 55.8844 44.9467 56.2844 44.36C56.6844 43.7733 57.2444 43.3267 57.9644 43.02C58.6844 42.7 59.5044 42.54 60.4244 42.54C61.491 42.5667 62.3977 42.4667 63.1444 42.24C63.891 42 64.651 41.6467 65.4244 41.18L66.1444 43.5ZM60.5044 44.6C59.9977 44.6 59.5977 44.76 59.3044 45.08C59.0244 45.4 58.8844 45.8333 58.8844 46.38C58.8844 46.9533 59.031 47.4 59.3244 47.72C59.6177 48.04 60.011 48.2 60.5044 48.2C61.0244 48.2 61.4244 48.0467 61.7044 47.74C61.9844 47.42 62.1244 46.9533 62.1244 46.34C62.1244 45.18 61.5844 44.6 60.5044 44.6ZM87.7166 50.44C87.7166 50.8267 87.7699 51.1133 87.8766 51.3C87.9832 51.4867 88.1632 51.6267 88.4166 51.72L87.7566 53.8C87.1166 53.7333 86.5832 53.5933 86.1566 53.38C85.7299 53.1533 85.3966 52.8267 85.1566 52.4C84.7566 52.8667 84.2499 53.2267 83.6366 53.48C83.0232 53.72 82.3699 53.84 81.6766 53.84C80.5832 53.84 79.7099 53.5333 79.0566 52.92C78.4032 52.2933 78.0766 51.4867 78.0766 50.5C78.0766 49.3533 78.5299 48.4667 79.4366 47.84C80.3432 47.2 81.6166 46.88 83.2566 46.88H84.6766V46.5C84.6766 45.4067 83.9766 44.86 82.5766 44.86C82.2166 44.86 81.7632 44.9133 81.2166 45.02C80.6832 45.1133 80.1632 45.2467 79.6566 45.42L78.9366 43.32C79.6166 43.0667 80.3232 42.8733 81.0566 42.74C81.8032 42.5933 82.4766 42.52 83.0766 42.52C86.1699 42.52 87.7166 43.7733 87.7166 46.28V50.44ZM82.7566 51.58C83.1166 51.58 83.4766 51.48 83.8366 51.28C84.2099 51.0667 84.4899 50.78 84.6766 50.42V48.68H83.8966C82.1899 48.68 81.3366 49.2133 81.3366 50.28C81.3366 50.6933 81.4566 51.0133 81.6966 51.24C81.9499 51.4667 82.3032 51.58 82.7566 51.58ZM101.569 42.88H104.329L104.549 44.1C105.029 43.5667 105.529 43.1733 106.049 42.92C106.582 42.6533 107.182 42.52 107.849 42.52C108.769 42.52 109.482 42.8 109.989 43.36C110.509 43.92 110.769 44.7 110.769 45.7V53.5H107.609V46.62C107.609 45.9533 107.535 45.4933 107.389 45.24C107.242 44.9867 106.975 44.86 106.589 44.86C106.269 44.86 105.955 44.9667 105.649 45.18C105.355 45.38 105.049 45.68 104.729 46.08V53.5H101.569V42.88ZM128.941 37.32C129.488 37.32 129.934 37.4933 130.281 37.84C130.628 38.1733 130.801 38.5933 130.801 39.1C130.801 39.62 130.628 40.0467 130.281 40.38C129.934 40.7133 129.488 40.88 128.941 40.88C128.394 40.88 127.941 40.7133 127.581 40.38C127.234 40.0333 127.061 39.6067 127.061 39.1C127.061 38.5933 127.234 38.1733 127.581 37.84C127.941 37.4933 128.394 37.32 128.941 37.32ZM130.841 51.34H133.561V53.5H124.681V51.34H127.681V45.04H124.781V42.88H130.841V51.34ZM156.233 51.1L155.933 53.5H147.193V51.26L152.473 45.26H147.633V42.88H156.133V45.1L150.933 51.1H156.233ZM172.685 49.12C172.885 50.7333 173.739 51.54 175.245 51.54C176.152 51.54 177.059 51.2467 177.965 50.66L179.225 52.38C178.705 52.8333 178.085 53.1933 177.365 53.46C176.645 53.7133 175.852 53.84 174.985 53.84C173.799 53.84 172.792 53.6067 171.965 53.14C171.139 52.66 170.512 52 170.085 51.16C169.672 50.3067 169.465 49.32 169.465 48.2C169.465 47.1333 169.665 46.1733 170.065 45.32C170.479 44.4533 171.072 43.7733 171.845 43.28C172.632 42.7733 173.565 42.52 174.645 42.52C175.659 42.52 176.539 42.74 177.285 43.18C178.032 43.6067 178.605 44.2333 179.005 45.06C179.419 45.8733 179.625 46.8467 179.625 47.98C179.625 48.42 179.605 48.8 179.565 49.12H172.685ZM174.645 44.64C174.072 44.64 173.612 44.8533 173.265 45.28C172.919 45.6933 172.712 46.3333 172.645 47.2H176.545C176.519 45.4933 175.885 44.64 174.645 44.64ZM12.78 77.6C12.78 77 12.9933 76.48 13.42 76.04C13.86 75.6 14.3867 75.38 15 75.38C15.6133 75.38 16.1333 75.6 16.56 76.04C17 76.48 17.22 77 17.22 77.6C17.22 78.2133 17 78.74 16.56 79.18C16.1333 79.62 15.6133 79.84 15 79.84C14.3867 79.84 13.86 79.62 13.42 79.18C12.9933 78.74 12.78 78.2133 12.78 77.6ZM39.0722 68.52C40.4055 68.52 41.3855 69.0133 42.0122 70C42.6389 70.9733 42.9522 72.36 42.9522 74.16C42.9522 75.2533 42.7855 76.2333 42.4522 77.1C42.1322 77.9533 41.6655 78.6267 41.0522 79.12C40.4389 79.6 39.7122 79.84 38.8722 79.84C37.8455 79.84 37.0055 79.4733 36.3522 78.74V83.6L33.1922 83.94V68.88H35.9922L36.1322 70.06C36.5455 69.54 37.0055 69.1533 37.5122 68.9C38.0322 68.6467 38.5522 68.52 39.0722 68.52ZM38.0922 70.86C37.4255 70.86 36.8455 71.2733 36.3522 72.1V76.58C36.5789 76.9 36.8122 77.14 37.0522 77.3C37.3055 77.4467 37.5922 77.52 37.9122 77.52C38.4989 77.52 38.9389 77.26 39.2322 76.74C39.5389 76.2067 39.6922 75.36 39.6922 74.2C39.6922 72.9467 39.5589 72.08 39.2922 71.6C39.0255 71.1067 38.6255 70.86 38.0922 70.86ZM64.9244 76.44C64.9244 76.8267 64.9777 77.1133 65.0844 77.3C65.191 77.4867 65.371 77.6267 65.6244 77.72L64.9644 79.8C64.3244 79.7333 63.791 79.5933 63.3644 79.38C62.9377 79.1533 62.6044 78.8267 62.3644 78.4C61.9644 78.8667 61.4577 79.2267 60.8444 79.48C60.231 79.72 59.5777 79.84 58.8844 79.84C57.791 79.84 56.9177 79.5333 56.2644 78.92C55.611 78.2933 55.2844 77.4867 55.2844 76.5C55.2844 75.3533 55.7377 74.4667 56.6444 73.84C57.551 73.2 58.8244 72.88 60.4644 72.88H61.8844V72.5C61.8844 71.4067 61.1844 70.86 59.7844 70.86C59.4244 70.86 58.971 70.9133 58.4244 71.02C57.891 71.1133 57.371 71.2467 56.8644 71.42L56.1444 69.32C56.8244 69.0667 57.531 68.8733 58.2644 68.74C59.011 68.5933 59.6844 68.52 60.2844 68.52C63.3777 68.52 64.9244 69.7733 64.9244 72.28V76.44ZM59.9644 77.58C60.3244 77.58 60.6844 77.48 61.0444 77.28C61.4177 77.0667 61.6977 76.78 61.8844 76.42V74.68H61.1044C59.3977 74.68 58.5444 75.2133 58.5444 76.28C58.5444 76.6933 58.6644 77.0133 58.9044 77.24C59.1577 77.4667 59.511 77.58 59.9644 77.58ZM86.8766 68.56C87.5166 68.56 88.1032 68.6667 88.6366 68.88L88.0566 73.32H86.0566V71.36C85.4699 71.4667 84.9499 71.7867 84.4966 72.32C84.0432 72.8533 83.6899 73.5267 83.4366 74.34V77.38H85.5366V79.5H78.8766V77.38H80.2766V70.98H78.8766V68.88H82.6966L83.2566 71.26C83.6432 70.3533 84.1299 69.68 84.7166 69.24C85.3032 68.7867 86.0232 68.56 86.8766 68.56ZM111.129 78.88C110.129 79.52 108.969 79.84 107.649 79.84C106.289 79.84 105.262 79.4933 104.569 78.8C103.889 78.1067 103.549 77.1333 103.549 75.88V71.06H101.329V68.88H103.549V66.58L106.709 66.2V68.88H110.129L109.809 71.06H106.709V75.88C106.709 76.4 106.829 76.7733 107.069 77C107.309 77.2267 107.695 77.34 108.229 77.34C108.895 77.34 109.515 77.18 110.089 76.86L111.129 78.88ZM130.861 79.5C130.381 80.9267 129.668 82 128.721 82.72C127.774 83.4533 126.508 83.8667 124.921 83.96L124.561 81.72C125.574 81.5867 126.321 81.36 126.801 81.04C127.294 80.72 127.688 80.2067 127.981 79.5H126.881L123.521 68.88H126.861L128.921 77.48L131.161 68.88H134.401L130.861 79.5Z" fill="black"/>
<path d="M18.78 44.06L18.4052 44.391L18.4098 44.3961L18.78 44.06ZM18.8 52.34L18.4296 52.0042L18.8 52.34ZM11.2 52.36L10.8296 52.6959L10.8318 52.6983L11.2 52.36ZM10.44 45.22L9.99 45.002L9.98857 45.005L10.44 45.22ZM12.22 43.24L12.4783 43.6681L12.4804 43.6668L12.22 43.24ZM13.56 45.66L13.9907 45.914L13.9935 45.9092L13.56 45.66ZM13.56 50.74L13.1265 50.9893L13.1293 50.994L13.56 50.74ZM16.44 50.72L16.0065 50.4708L16.44 50.72ZM16.44 45.66L16.0065 45.9093L16.0093 45.914L16.44 45.66ZM15 43.02C16.498 43.02 17.6106 43.4911 18.4052 44.391L19.1548 43.729C18.1361 42.5755 16.7287 42.02 15 42.02V43.02ZM18.4098 44.3961C19.2264 45.2955 19.66 46.5311 19.66 48.16H20.66C20.66 46.3489 20.1736 44.8511 19.1502 43.7239L18.4098 44.3961ZM19.66 48.16C19.66 49.8635 19.2289 51.1226 18.4296 52.0042L19.1704 52.6758C20.1844 51.5574 20.66 50.0298 20.66 48.16H19.66ZM18.4296 52.0042C17.6369 52.8784 16.517 53.34 15 53.34V54.34C16.7363 54.34 18.1497 53.8016 19.1704 52.6758L18.4296 52.0042ZM15 53.34C13.4809 53.34 12.3603 52.8837 11.5682 52.0217L10.8318 52.6983C11.8531 53.8097 13.2658 54.34 15 54.34V53.34ZM11.5704 52.0242C10.7711 51.1426 10.34 49.8835 10.34 48.18H9.34C9.34 50.0498 9.81556 51.5774 10.8296 52.6958L11.5704 52.0242ZM10.34 48.18C10.34 47.1051 10.5296 46.1948 10.8914 45.435L9.98857 45.005C9.55039 45.9252 9.34 46.9882 9.34 48.18H10.34ZM10.89 45.438C11.2633 44.6672 11.7921 44.0822 12.4783 43.6681L11.9617 42.8119C11.1012 43.3311 10.4433 44.0661 9.99001 45.002L10.89 45.438ZM12.4804 43.6668C13.177 43.2418 14.0105 43.02 15 43.02V42.02C13.8562 42.02 12.8364 42.2782 11.9596 42.8132L12.4804 43.6668ZM15 44.36C14.1813 44.36 13.529 44.7109 13.1265 45.4108L13.9935 45.9092C14.2043 45.5425 14.512 45.36 15 45.36V44.36ZM13.1293 45.406C12.7519 46.046 12.6 46.9993 12.6 48.18H13.6C13.6 47.0407 13.7548 46.314 13.9907 45.914L13.1293 45.406ZM12.6 48.18C12.6 49.3746 12.7522 50.3381 13.1265 50.9892L13.9935 50.4908C13.7545 50.0752 13.6 49.3321 13.6 48.18H12.6ZM13.1293 50.994C13.5345 51.6811 14.1873 52.02 15 52.02V51.02C14.506 51.02 14.1988 50.8389 13.9907 50.486L13.1293 50.994ZM15 52.02C15.8187 52.02 16.471 51.6691 16.8735 50.9692L16.0065 50.4708C15.7957 50.8375 15.488 51.02 15 51.02V52.02ZM16.8735 50.9692C17.2478 50.3181 17.4 49.3546 17.4 48.16H16.4C16.4 49.3121 16.2455 50.0552 16.0065 50.4708L16.8735 50.9692ZM17.4 48.16C17.4 46.9913 17.2478 46.0454 16.8707 45.406L16.0093 45.914C16.2456 46.3146 16.4 47.0353 16.4 48.16H17.4ZM16.8735 45.4108C16.471 44.7109 15.8187 44.36 15 44.36V45.36C15.488 45.36 15.7957 45.5425 16.0065 45.9092L16.8735 45.4108ZM43.0522 42.88L43.548 42.9448L43.5982 42.5599L43.2379 42.4158L43.0522 42.88ZM42.4722 47.32V47.82H42.9111L42.968 47.3848L42.4722 47.32ZM40.4722 47.32H39.9722V47.82H40.4722V47.32ZM40.4722 45.36H40.9722V44.7609L40.3827 44.8681L40.4722 45.36ZM38.9122 46.32L38.5312 45.9962V45.9962L38.9122 46.32ZM37.8522 48.34L37.3748 48.1913L37.3522 48.2639V48.34H37.8522ZM37.8522 51.38H37.3522V51.88H37.8522V51.38ZM39.9522 51.38H40.4522V50.88H39.9522V51.38ZM39.9522 53.5V54H40.4522V53.5H39.9522ZM33.2922 53.5H32.7922V54H33.2922V53.5ZM33.2922 51.38V50.88H32.7922V51.38H33.2922ZM34.6922 51.38V51.88H35.1922V51.38H34.6922ZM34.6922 44.98H35.1922V44.48H34.6922V44.98ZM33.2922 44.98H32.7922V45.48H33.2922V44.98ZM33.2922 42.88V42.38H32.7922V42.88H33.2922ZM37.1122 42.88L37.5989 42.7655L37.5082 42.38H37.1122V42.88ZM37.6722 45.26L37.1855 45.3745L37.5344 46.8576L38.1321 45.4561L37.6722 45.26ZM39.1322 43.24L39.4322 43.64L39.4379 43.6356L39.1322 43.24ZM41.2922 43.06C41.8758 43.06 42.3986 43.1571 42.8665 43.3442L43.2379 42.4158C42.6391 42.1763 41.9885 42.06 41.2922 42.06V43.06ZM42.5564 42.8152L41.9764 47.2552L42.968 47.3848L43.548 42.9448L42.5564 42.8152ZM42.4722 46.82H40.4722V47.82H42.4722V46.82ZM40.9722 47.32V45.36H39.9722V47.32H40.9722ZM40.3827 44.8681C39.6633 44.9989 39.0458 45.3908 38.5312 45.9962L39.2932 46.6438C39.6853 46.1825 40.1077 45.9345 40.5616 45.8519L40.3827 44.8681ZM38.5312 45.9962C38.0259 46.5906 37.6439 47.3273 37.3748 48.1913L38.3296 48.4887C38.5671 47.726 38.8918 47.116 39.2932 46.6438L38.5312 45.9962ZM37.3522 48.34V51.38H38.3522V48.34H37.3522ZM37.8522 51.88H39.9522V50.88H37.8522V51.88ZM39.4522 51.38V53.5H40.4522V51.38H39.4522ZM39.9522 53H33.2922V54H39.9522V53ZM33.7922 53.5V51.38H32.7922V53.5H33.7922ZM33.2922 51.88H34.6922V50.88H33.2922V51.88ZM35.1922 51.38V44.98H34.1922V51.38H35.1922ZM34.6922 44.48H33.2922V45.48H34.6922V44.48ZM33.7922 44.98V42.88H32.7922V44.98H33.7922ZM33.2922 43.38H37.1122V42.38H33.2922V43.38ZM36.6255 42.9945L37.1855 45.3745L38.1589 45.1455L37.5989 42.7655L36.6255 42.9945ZM38.1321 45.4561C38.4957 44.6035 38.9359 44.0122 39.4322 43.64L38.8322 42.84C38.1551 43.3478 37.622 44.1032 37.2123 45.0639L38.1321 45.4561ZM39.4379 43.6356C39.9241 43.2599 40.532 43.06 41.2922 43.06V42.06C40.3457 42.06 39.5136 42.3134 38.8265 42.8444L39.4379 43.6356ZM66.1444 43.5L66.3316 43.9636L66.7583 43.7913L66.6219 43.3518L66.1444 43.5ZM63.0844 43.92V43.42L62.8821 44.3773L63.0844 43.92ZM64.6244 45.02L64.2303 45.3279L64.2363 45.3353L64.6244 45.02ZM64.5844 48.5L64.994 48.7867L64.9973 48.782L64.5844 48.5ZM63.0044 49.76L63.2099 50.2158L63.0044 49.76ZM59.4044 50.1L59.5057 49.6104L59.3359 49.5752L59.1808 49.6528L59.4044 50.1ZM59.1444 50.36L58.7073 50.1172L58.702 50.1267L58.6972 50.1364L59.1444 50.36ZM59.2844 51.18L58.9678 51.567L58.9867 51.5825L59.007 51.596L59.2844 51.18ZM64.1044 51.74L64.3037 51.2815L64.1044 51.74ZM65.5244 52.84L65.9312 52.5494L65.5244 52.84ZM64.5644 57L64.2978 56.5769L64.2911 56.5813L64.5644 57ZM57.2244 57.52L57.3972 57.0508L57.3925 57.0491L57.2244 57.52ZM55.6444 56.38L55.2145 56.6356L55.2197 56.644L55.6444 56.38ZM55.2044 54.52V54.02H54.7044V54.52H55.2044ZM58.0044 54.52H58.5044V54.02H58.0044V54.52ZM58.1844 55.3L57.7638 55.5704L57.7704 55.5807L57.7775 55.5906L58.1844 55.3ZM58.9044 55.72L58.7744 56.2028L58.9044 55.72ZM62.3444 55.54L62.0894 55.1098L62.0823 55.1142L62.3444 55.54ZM62.4844 53.86L62.7844 53.46L62.781 53.4575L62.4844 53.86ZM57.2044 53L56.9091 53.4036L56.9156 53.4082L57.2044 53ZM56.6844 50.36L56.2542 50.1051L56.2513 50.1101L56.6844 50.36ZM57.5644 49.46L57.8348 49.8806L58.5473 49.4225L57.8019 49.02L57.5644 49.46ZM56.1244 48.2L55.6946 48.4556L55.6977 48.4607L56.1244 48.2ZM56.2844 44.36L56.6975 44.6417L56.2844 44.36ZM57.9644 43.02L58.1603 43.4801L58.1674 43.4769L57.9644 43.02ZM60.4244 42.54L60.4369 42.04H60.4244V42.54ZM63.1444 42.24L63.2896 42.7185L63.2974 42.716L63.1444 42.24ZM65.4244 41.18L65.9019 41.0318L65.7127 40.422L65.166 40.7519L65.4244 41.18ZM59.3044 45.08L58.9357 44.742L58.9281 44.7507L59.3044 45.08ZM59.3244 47.72L59.693 47.3821L59.3244 47.72ZM61.7044 47.74L62.0737 48.0772L62.0807 48.0693L61.7044 47.74ZM65.9571 43.0364C65.3533 43.2803 64.4099 43.42 63.0844 43.42V44.42C64.4521 44.42 65.5488 44.2797 66.3316 43.9636L65.9571 43.0364ZM62.8821 44.3773C63.5286 44.6632 63.9639 44.9867 64.2304 45.3278L65.0184 44.7122C64.6182 44.1999 64.0268 43.7901 63.2866 43.4627L62.8821 44.3773ZM64.2363 45.3353C64.4961 45.655 64.6444 46.0829 64.6444 46.66H65.6444C65.6444 45.9038 65.446 45.2383 65.0124 44.7047L64.2363 45.3353ZM64.6444 46.66C64.6444 47.2423 64.4864 47.7568 64.1715 48.218L64.9973 48.782C65.429 48.1499 65.6444 47.4377 65.6444 46.66H64.6444ZM64.1748 48.2133C63.8602 48.6627 63.409 49.029 62.7988 49.3042L63.2099 50.2158C63.9597 49.8776 64.5619 49.404 64.994 48.7867L64.1748 48.2133ZM62.7988 49.3042C62.1949 49.5766 61.4806 49.72 60.6444 49.72V50.72C61.5948 50.72 62.4538 50.5568 63.2099 50.2158L62.7988 49.3042ZM60.6444 49.72C60.2346 49.72 59.8555 49.6827 59.5057 49.6104L59.3031 50.5896C59.7266 50.6773 60.1742 50.72 60.6444 50.72V49.72ZM59.1808 49.6528C58.9709 49.7577 58.8153 49.9228 58.7073 50.1172L59.5815 50.6028C59.6068 50.5572 59.6245 50.5489 59.628 50.5472L59.1808 49.6528ZM58.6972 50.1364C58.6089 50.3129 58.5644 50.5029 58.5644 50.7H59.5644C59.5644 50.6571 59.5732 50.6204 59.5916 50.5836L58.6972 50.1364ZM58.5644 50.7C58.5644 51.0404 58.6978 51.3461 58.9678 51.567L59.601 50.793C59.582 50.7775 59.5764 50.7672 59.5739 50.7617C59.571 50.7554 59.5644 50.7379 59.5644 50.7H58.5644ZM59.007 51.596C59.1714 51.7056 59.3691 51.7612 59.5555 51.7929C59.7494 51.8259 59.9747 51.84 60.2244 51.84V50.84C60.0074 50.84 59.8427 50.8274 59.7233 50.8071C59.5963 50.7855 59.5573 50.761 59.5617 50.764L59.007 51.596ZM60.2244 51.84H61.9844V50.84H60.2244V51.84ZM61.9844 51.84C62.729 51.84 63.3657 51.964 63.905 52.1985L64.3037 51.2815C63.6164 50.9826 62.8398 50.84 61.9844 50.84V51.84ZM63.905 52.1985C64.4492 52.4352 64.8451 52.7492 65.1175 53.1306L65.9312 52.5494C65.537 51.9975 64.9862 51.5782 64.3037 51.2815L63.905 52.1985ZM65.1175 53.1306C65.3888 53.5104 65.5244 53.935 65.5244 54.42H66.5244C66.5244 53.7317 66.3266 53.1029 65.9312 52.5494L65.1175 53.1306ZM65.5244 54.42C65.5244 55.3469 65.1328 56.0508 64.2978 56.577L64.8309 57.423C65.9426 56.7225 66.5244 55.7065 66.5244 54.42H65.5244ZM64.2911 56.5813C63.4483 57.1315 62.155 57.44 60.3444 57.44V58.44C62.2404 58.44 63.7605 58.1219 64.8377 57.4187L64.2911 56.5813ZM60.3444 57.44C59.051 57.44 58.078 57.3016 57.3972 57.0508L57.0515 57.9892C57.8907 58.2984 58.9977 58.44 60.3444 58.44V57.44ZM57.3925 57.0491C56.7138 56.8067 56.2975 56.4836 56.069 56.116L55.2197 56.644C55.6046 57.263 56.2416 57.7 57.0562 57.9909L57.3925 57.0491ZM56.0741 56.1245C55.8386 55.7284 55.7044 55.2032 55.7044 54.52H54.7044C54.7044 55.3302 54.8634 56.0449 55.2146 56.6355L56.0741 56.1245ZM55.2044 55.02H58.0044V54.02H55.2044V55.02ZM57.5044 54.52C57.5044 54.9042 57.572 55.2721 57.7638 55.5704L58.605 55.0296C58.5567 54.9545 58.5044 54.8024 58.5044 54.52H57.5044ZM57.7775 55.5906C58.0069 55.9118 58.3756 56.0954 58.7744 56.2028L59.0344 55.2372C58.7398 55.1579 58.6285 55.0616 58.5912 55.0094L57.7775 55.5906ZM58.7744 56.2028C59.1853 56.3134 59.7445 56.36 60.4244 56.36V55.36C59.771 55.36 59.3168 55.3132 59.0344 55.2372L58.7744 56.2028ZM60.4244 56.36C60.9077 56.36 61.3305 56.3325 61.6866 56.2732C62.0369 56.2148 62.3551 56.1205 62.6064 55.9658L62.0823 55.1142C61.987 55.1729 61.8119 55.2385 61.5222 55.2868C61.2383 55.3341 60.8743 55.36 60.4244 55.36V56.36ZM62.5993 55.9701C63.0961 55.6758 63.3844 55.2202 63.3844 54.64H62.3844C62.3844 54.8331 62.3127 54.9776 62.0895 55.1099L62.5993 55.9701ZM63.3844 54.64C63.3844 54.1551 63.1708 53.7498 62.7844 53.46L62.1844 54.26C62.3313 54.3702 62.3844 54.4849 62.3844 54.64H63.3844ZM62.781 53.4575C62.4035 53.1793 61.8978 53.08 61.3444 53.08V54.08C61.8043 54.08 62.0586 54.1673 62.1878 54.2625L62.781 53.4575ZM61.3444 53.08H59.6644V54.08H61.3444V53.08ZM59.6644 53.08C58.6148 53.08 57.917 52.8917 57.4931 52.5918L56.9156 53.4082C57.585 53.8817 58.5273 54.08 59.6644 54.08V53.08ZM57.4996 52.5965C57.0661 52.2793 56.8844 51.9155 56.8844 51.48H55.8844C55.8844 52.2711 56.2493 52.9207 56.9091 53.4035L57.4996 52.5965ZM56.8844 51.48C56.8844 51.1678 56.9613 50.8806 57.1175 50.6099L56.2513 50.1101C56.0075 50.5327 55.8844 50.9922 55.8844 51.48H56.8844ZM57.1145 50.6149C57.2858 50.3258 57.5228 50.0812 57.8348 49.8806L57.294 49.0394C56.8593 49.3188 56.5096 49.6742 56.2542 50.1051L57.1145 50.6149ZM57.8019 49.02C57.187 48.688 56.785 48.3221 56.551 47.9393L55.6977 48.4607C56.0504 49.0379 56.6084 49.512 57.3268 49.9L57.8019 49.02ZM56.5541 47.9445C56.3155 47.5431 56.1844 47.0421 56.1844 46.42H55.1844C55.1844 47.1845 55.3466 47.8702 55.6946 48.4555L56.5541 47.9445ZM56.1844 46.42C56.1844 45.7225 56.3601 45.1364 56.6975 44.6417L55.8713 44.0783C55.4086 44.7569 55.1844 45.5441 55.1844 46.42H56.1844ZM56.6975 44.6417C57.0382 44.142 57.5189 43.7532 58.1603 43.48L57.7684 42.56C56.9698 42.9001 56.3305 43.4047 55.8713 44.0783L56.6975 44.6417ZM58.1674 43.4769C58.8137 43.1897 59.5627 43.04 60.4244 43.04V42.04C59.446 42.04 58.5551 42.2103 57.7613 42.5631L58.1674 43.4769ZM60.4119 43.0398C61.5137 43.0674 62.4769 42.9651 63.2896 42.7184L62.9991 41.7616C62.3185 41.9682 61.4683 42.0659 60.4369 42.0402L60.4119 43.0398ZM63.2974 42.716C64.086 42.4625 64.8811 42.0918 65.6827 41.6081L65.166 40.7519C64.421 41.2015 63.6961 41.5375 62.9914 41.764L63.2974 42.716ZM64.9468 41.3282L65.6668 43.6482L66.6219 43.3518L65.9019 41.0318L64.9468 41.3282ZM60.5044 44.1C59.8832 44.1 59.3399 44.3013 58.9358 44.7421L59.673 45.4179C59.8555 45.2187 60.1122 45.1 60.5044 45.1V44.1ZM58.9281 44.7507C58.5477 45.1855 58.3844 45.7477 58.3844 46.38H59.3844C59.3844 45.919 59.501 45.6145 59.6807 45.4093L58.9281 44.7507ZM58.3844 46.38C58.3844 47.0374 58.5538 47.6193 58.9558 48.0579L59.693 47.3821C59.5083 47.1807 59.3844 46.8693 59.3844 46.38H58.3844ZM58.9558 48.0579C59.3572 48.4958 59.892 48.7 60.5044 48.7V47.7C60.1301 47.7 59.8782 47.5842 59.693 47.3821L58.9558 48.0579ZM60.5044 48.7C61.1269 48.7 61.676 48.5126 62.0736 48.0771L61.3351 47.4029C61.1727 47.5807 60.9218 47.7 60.5044 47.7V48.7ZM62.0807 48.0693C62.4694 47.625 62.6244 47.0217 62.6244 46.34H61.6244C61.6244 46.885 61.4994 47.215 61.3281 47.4107L62.0807 48.0693ZM62.6244 46.34C62.6244 45.6915 62.4741 45.1119 62.0853 44.6943C61.6902 44.2699 61.131 44.1 60.5044 44.1V45.1C60.9578 45.1 61.2085 45.2201 61.3534 45.3757C61.5046 45.5381 61.6244 45.8285 61.6244 46.34H62.6244ZM87.8766 51.3L88.3107 51.0519L87.8766 51.3ZM88.4166 51.72L88.8932 51.8712L89.0376 51.416L88.5894 51.2508L88.4166 51.72ZM87.7566 53.8L87.7048 54.2973L88.1099 54.3395L88.2331 53.9512L87.7566 53.8ZM86.1566 53.38L85.9219 53.8217L85.933 53.8272L86.1566 53.38ZM85.1566 52.4L85.5924 52.1549L85.242 51.532L84.7769 52.0746L85.1566 52.4ZM83.6366 53.48L83.8188 53.9457L83.8274 53.9421L83.6366 53.48ZM79.0566 52.92L78.7104 53.2809L78.7143 53.2845L79.0566 52.92ZM79.4366 47.84L79.7209 48.2513L79.7249 48.2485L79.4366 47.84ZM84.6766 46.88V47.38H85.1766V46.88H84.6766ZM81.2166 45.02L81.3028 45.5126L81.3123 45.5107L81.2166 45.02ZM79.6566 45.42L79.1836 45.5822L79.3456 46.0548L79.8184 45.8931L79.6566 45.42ZM78.9366 43.32L78.762 42.8515L78.3056 43.0215L78.4636 43.4822L78.9366 43.32ZM81.0566 42.74L81.146 43.232L81.1529 43.2306L81.0566 42.74ZM83.8366 51.28L84.0794 51.7171L84.0846 51.7141L83.8366 51.28ZM84.6766 50.42L85.1204 50.6502L85.1766 50.5419V50.42H84.6766ZM84.6766 48.68H85.1766V48.18H84.6766V48.68ZM81.6966 51.24L81.3531 51.6036L81.3632 51.6126L81.6966 51.24ZM87.2166 50.44C87.2166 50.8541 87.2704 51.247 87.4424 51.5481L88.3107 51.0519C88.2694 50.9796 88.2166 50.7992 88.2166 50.44H87.2166ZM87.4424 51.5481C87.6212 51.8609 87.909 52.0659 88.2437 52.1892L88.5894 51.2508C88.4174 51.1875 88.3453 51.1125 88.3107 51.0519L87.4424 51.5481ZM87.94 51.5688L87.28 53.6488L88.2331 53.9512L88.8932 51.8712L87.94 51.5688ZM87.8084 53.3027C87.2086 53.2402 86.7379 53.1116 86.3802 52.9328L85.933 53.8272C86.4286 54.075 87.0245 54.2264 87.7048 54.2973L87.8084 53.3027ZM86.3911 52.9384C86.0501 52.7573 85.7861 52.4993 85.5924 52.1549L84.7208 52.6451C85.007 53.154 85.4097 53.5494 85.922 53.8216L86.3911 52.9384ZM84.7769 52.0746C84.4322 52.4768 83.9921 52.7922 83.4457 53.0179L83.8274 53.9421C84.5077 53.6612 85.0809 53.2566 85.5362 52.7254L84.7769 52.0746ZM83.4544 53.0144C82.9021 53.2305 82.3109 53.34 81.6766 53.34V54.34C82.4289 54.34 83.1443 54.2095 83.8188 53.9456L83.4544 53.0144ZM81.6766 53.34C80.6809 53.34 79.9399 53.0635 79.3988 52.5555L78.7143 53.2845C79.4799 54.0032 80.4856 54.34 81.6766 54.34V53.34ZM79.4027 52.5592C78.857 52.0358 78.5766 51.364 78.5766 50.5H77.5766C77.5766 51.6093 77.9494 52.5509 78.7104 53.2808L79.4027 52.5592ZM78.5766 50.5C78.5766 49.5097 78.9556 48.7802 79.7209 48.2513L79.1523 47.4287C78.1042 48.1531 77.5766 49.197 77.5766 50.5H78.5766ZM79.7249 48.2485C80.5157 47.6903 81.673 47.38 83.2566 47.38V46.38C81.5601 46.38 80.1708 46.7097 79.1482 47.4315L79.7249 48.2485ZM83.2566 47.38H84.6766V46.38H83.2566V47.38ZM85.1766 46.88V46.5H84.1766V46.88H85.1766ZM85.1766 46.5C85.1766 45.8387 84.9586 45.2659 84.4593 44.8759C83.9835 44.5044 83.3279 44.36 82.5766 44.36V45.36C83.2252 45.36 83.6196 45.489 83.8438 45.6641C84.0445 45.8208 84.1766 46.0679 84.1766 46.5H85.1766ZM82.5766 44.36C82.172 44.36 81.6839 44.4194 81.1208 44.5293L81.3123 45.5107C81.8426 45.4073 82.2611 45.36 82.5766 45.36V44.36ZM81.1304 44.5275C80.5716 44.6253 80.0263 44.765 79.4947 44.9469L79.8184 45.8931C80.3001 45.7283 80.7948 45.6014 81.3028 45.5125L81.1304 44.5275ZM80.1295 45.2578L79.4095 43.1578L78.4636 43.4822L79.1836 45.5822L80.1295 45.2578ZM79.1111 43.7885C79.7628 43.5458 80.4409 43.3601 81.146 43.2319L80.9671 42.2481C80.2056 42.3865 79.4704 42.5876 78.762 42.8515L79.1111 43.7885ZM81.1529 43.2306C81.8759 43.0886 82.5162 43.02 83.0766 43.02V42.02C82.437 42.02 81.7306 42.098 80.9602 42.2494L81.1529 43.2306ZM83.0766 43.02C84.5687 43.02 85.595 43.3244 86.2418 43.8485C86.8684 44.3563 87.2166 45.1348 87.2166 46.28H88.2166C88.2166 44.9185 87.7914 43.8171 86.8714 43.0715C85.9714 42.3423 84.6778 42.02 83.0766 42.02V43.02ZM87.2166 46.28V50.44H88.2166V46.28H87.2166ZM82.7566 52.08C83.2131 52.08 83.6559 51.9523 84.0794 51.7171L83.5937 50.8429C83.2972 51.0077 83.02 51.08 82.7566 51.08V52.08ZM84.0846 51.7141C84.5362 51.4561 84.8868 51.1008 85.1204 50.6502L84.2327 50.1898C84.093 50.4592 83.8836 50.6773 83.5885 50.8459L84.0846 51.7141ZM85.1766 50.42V48.68H84.1766V50.42H85.1766ZM84.6766 48.18H83.8966V49.18H84.6766V48.18ZM83.8966 48.18C83.0073 48.18 82.2555 48.316 81.7116 48.656C81.1284 49.0205 80.8366 49.5868 80.8366 50.28H81.8366C81.8366 49.9066 81.9714 49.6729 82.2416 49.504C82.5509 49.3106 83.0791 49.18 83.8966 49.18V48.18ZM80.8366 50.28C80.8366 50.794 80.9892 51.2597 81.3532 51.6035L82.0399 50.8765C81.9239 50.767 81.8366 50.5927 81.8366 50.28H80.8366ZM81.3632 51.6126C81.7351 51.9454 82.2219 52.08 82.7566 52.08V51.08C82.3846 51.08 82.1647 50.9879 82.03 50.8674L81.3632 51.6126ZM101.569 42.88V42.38H101.069V42.88H101.569ZM104.329 42.88L104.821 42.7913L104.747 42.38H104.329V42.88ZM104.549 44.1L104.057 44.1887L104.238 45.193L104.92 44.4345L104.549 44.1ZM106.049 42.92L106.268 43.3695L106.272 43.3672L106.049 42.92ZM109.989 43.36L109.618 43.6955L109.622 43.7002L109.989 43.36ZM110.769 53.5V54H111.269V53.5H110.769ZM107.609 53.5H107.109V54H107.609V53.5ZM107.389 45.24L107.821 44.9895L107.821 44.9895L107.389 45.24ZM105.649 45.18L105.93 45.5931L105.934 45.5905L105.649 45.18ZM104.729 46.08L104.338 45.7677L104.229 45.9046V46.08H104.729ZM104.729 53.5V54H105.229V53.5H104.729ZM101.569 53.5H101.069V54H101.569V53.5ZM101.569 43.38H104.329V42.38H101.569V43.38ZM103.837 42.9687L104.057 44.1887L105.041 44.0113L104.821 42.7913L103.837 42.9687ZM104.92 44.4345C105.367 43.9378 105.818 43.5888 106.268 43.3695L105.83 42.4705C105.24 42.7579 104.69 43.1955 104.177 43.7655L104.92 44.4345ZM106.272 43.3672C106.728 43.1392 107.25 43.02 107.849 43.02V42.02C107.114 42.02 106.436 42.1675 105.825 42.4728L106.272 43.3672ZM107.849 43.02C108.661 43.02 109.226 43.2627 109.618 43.6955L110.36 43.0245C109.738 42.3373 108.877 42.02 107.849 42.02V43.02ZM109.622 43.7002C110.033 44.1421 110.269 44.7862 110.269 45.7H111.269C111.269 44.6138 110.985 43.6979 110.355 43.0198L109.622 43.7002ZM110.269 45.7V53.5H111.269V45.7H110.269ZM110.769 53H107.609V54H110.769V53ZM108.109 53.5V46.62H107.109V53.5H108.109ZM108.109 46.62C108.109 45.9512 108.041 45.3691 107.821 44.9895L106.956 45.4905C107.03 45.6176 107.109 45.9555 107.109 46.62H108.109ZM107.821 44.9895C107.557 44.5325 107.088 44.36 106.589 44.36V45.36C106.862 45.36 106.927 45.4409 106.956 45.4905L107.821 44.9895ZM106.589 44.36C106.15 44.36 105.739 44.508 105.363 44.7695L105.934 45.5905C106.172 45.4254 106.387 45.36 106.589 45.36V44.36ZM105.367 44.7669C105.019 45.0043 104.677 45.3444 104.338 45.7677L105.119 46.3923C105.421 46.0156 105.692 45.7557 105.93 45.5931L105.367 44.7669ZM104.229 46.08V53.5H105.229V46.08H104.229ZM104.729 53H101.569V54H104.729V53ZM102.069 53.5V42.88H101.069V53.5H102.069ZM130.281 37.84L129.927 38.1936L129.934 38.2004L130.281 37.84ZM130.281 40.38L130.627 40.7404V40.7404L130.281 40.38ZM127.581 40.38L127.227 40.7336L127.234 40.7403L127.241 40.7469L127.581 40.38ZM127.581 37.84L127.927 38.2004L127.928 38.2002L127.581 37.84ZM130.841 51.34H130.341V51.84H130.841V51.34ZM133.561 51.34H134.061V50.84H133.561V51.34ZM133.561 53.5V54H134.061V53.5H133.561ZM124.681 53.5H124.181V54H124.681V53.5ZM124.681 51.34V50.84H124.181V51.34H124.681ZM127.681 51.34V51.84H128.181V51.34H127.681ZM127.681 45.04H128.181V44.54H127.681V45.04ZM124.781 45.04H124.281V45.54H124.781V45.04ZM124.781 42.88V42.38H124.281V42.88H124.781ZM130.841 42.88H131.341V42.38H130.841V42.88ZM128.941 37.82C129.372 37.82 129.686 37.9518 129.927 38.1936L130.634 37.4864C130.183 37.0348 129.604 36.82 128.941 36.82V37.82ZM129.934 38.2004C130.177 38.434 130.301 38.7212 130.301 39.1H131.301C131.301 38.4655 131.078 37.9127 130.627 37.4796L129.934 38.2004ZM130.301 39.1C130.301 39.4963 130.174 39.7887 129.934 40.0196L130.627 40.7404C131.081 40.3046 131.301 39.7437 131.301 39.1H130.301ZM129.934 40.0196C129.694 40.2509 129.377 40.38 128.941 40.38V41.38C129.598 41.38 130.175 41.1757 130.627 40.7404L129.934 40.0196ZM128.941 40.38C128.505 40.38 128.177 40.2509 127.921 40.0131L127.241 40.7469C127.704 41.1758 128.284 41.38 128.941 41.38V40.38ZM127.934 40.0264C127.685 39.777 127.561 39.479 127.561 39.1H126.561C126.561 39.7343 126.784 40.2897 127.227 40.7336L127.934 40.0264ZM127.561 39.1C127.561 38.7212 127.685 38.434 127.927 38.2004L127.234 37.4796C126.784 37.9127 126.561 38.4655 126.561 39.1H127.561ZM127.928 38.2002C128.185 37.952 128.51 37.82 128.941 37.82V36.82C128.278 36.82 127.696 37.0347 127.234 37.4798L127.928 38.2002ZM130.841 51.84H133.561V50.84H130.841V51.84ZM133.061 51.34V53.5H134.061V51.34H133.061ZM133.561 53H124.681V54H133.561V53ZM125.181 53.5V51.34H124.181V53.5H125.181ZM124.681 51.84H127.681V50.84H124.681V51.84ZM128.181 51.34V45.04H127.181V51.34H128.181ZM127.681 44.54H124.781V45.54H127.681V44.54ZM125.281 45.04V42.88H124.281V45.04H125.281ZM124.781 43.38H130.841V42.38H124.781V43.38ZM130.341 42.88V51.34H131.341V42.88H130.341ZM156.233 51.1L156.729 51.162L156.8 50.6H156.233V51.1ZM155.933 53.5V54H156.375L156.429 53.562L155.933 53.5ZM147.193 53.5H146.693V54H147.193V53.5ZM147.193 51.26L146.818 50.9297L146.693 51.0713V51.26H147.193ZM152.473 45.26L152.848 45.5903L153.579 44.76H152.473V45.26ZM147.633 45.26H147.133V45.76H147.633V45.26ZM147.633 42.88V42.38H147.133V42.88H147.633ZM156.133 42.88H156.633V42.38H156.133V42.88ZM156.133 45.1L156.511 45.4275L156.633 45.2865V45.1H156.133ZM150.933 51.1L150.555 50.7725L149.838 51.6H150.933V51.1ZM155.737 51.038L155.437 53.438L156.429 53.562L156.729 51.162L155.737 51.038ZM155.933 53H147.193V54H155.933V53ZM147.693 53.5V51.26H146.693V53.5H147.693ZM147.568 51.5903L152.848 45.5903L152.098 44.9297L146.818 50.9297L147.568 51.5903ZM152.473 44.76H147.633V45.76H152.473V44.76ZM148.133 45.26V42.88H147.133V45.26H148.133ZM147.633 43.38H156.133V42.38H147.633V43.38ZM155.633 42.88V45.1H156.633V42.88H155.633ZM155.755 44.7725L150.555 50.7725L151.311 51.4275L156.511 45.4275L155.755 44.7725ZM150.933 51.6H156.233V50.6H150.933V51.6ZM172.685 49.12V48.62H172.12L172.189 49.1815L172.685 49.12ZM177.965 50.66L178.369 50.3645L178.09 49.9839L177.694 50.2402L177.965 50.66ZM179.225 52.38L179.554 52.7569L179.9 52.4551L179.629 52.0845L179.225 52.38ZM177.365 53.46L177.531 53.9317L177.539 53.9289L177.365 53.46ZM171.965 53.14L171.714 53.5724L171.72 53.5754L171.965 53.14ZM170.085 51.16L169.635 51.378L169.64 51.3864L170.085 51.16ZM170.065 45.32L169.614 45.1048L169.613 45.1078L170.065 45.32ZM171.845 43.28L172.114 43.7015L172.116 43.7004L171.845 43.28ZM177.285 43.18L177.031 43.6108L177.037 43.6141L177.285 43.18ZM179.005 45.06L178.555 45.2778L178.56 45.2865L179.005 45.06ZM179.565 49.12V49.62H180.007L180.061 49.182L179.565 49.12ZM173.265 45.28L173.648 45.6013L173.653 45.5953L173.265 45.28ZM172.645 47.2L172.147 47.1617L172.105 47.7H172.645V47.2ZM176.545 47.2V47.7H177.053L177.045 47.1922L176.545 47.2ZM172.189 49.1815C172.298 50.0595 172.593 50.7893 173.132 51.2983C173.675 51.8122 174.402 52.04 175.245 52.04V51.04C174.582 51.04 174.129 50.8644 173.819 50.5717C173.504 50.274 173.273 49.7938 173.182 49.0585L172.189 49.1815ZM175.245 52.04C176.265 52.04 177.265 51.7087 178.237 51.0798L177.694 50.2402C176.852 50.7847 176.038 51.04 175.245 51.04V52.04ZM177.562 50.9555L178.822 52.6755L179.629 52.0845L178.369 50.3645L177.562 50.9555ZM178.897 52.0031C178.427 52.4124 177.861 52.7431 177.192 52.9911L177.539 53.9289C178.309 53.6435 178.983 53.2543 179.554 52.7569L178.897 52.0031ZM177.199 52.9883C176.539 53.2206 175.803 53.34 174.985 53.34V54.34C175.901 54.34 176.751 54.2061 177.531 53.9317L177.199 52.9883ZM174.985 53.34C173.864 53.34 172.946 53.1196 172.211 52.7046L171.72 53.5754C172.638 54.0938 173.734 54.34 174.985 54.34V53.34ZM172.216 52.7076C171.472 52.2753 170.913 51.6862 170.531 50.9336L169.64 51.3864C170.111 52.3138 170.805 53.0447 171.714 53.5724L172.216 52.7076ZM170.535 50.942C170.16 50.1679 169.965 49.2581 169.965 48.2H168.965C168.965 49.3819 169.184 50.4454 169.635 51.378L170.535 50.942ZM169.965 48.2C169.965 47.197 170.153 46.3109 170.518 45.5322L169.613 45.1078C169.178 46.0358 168.965 47.0697 168.965 48.2H169.965ZM170.517 45.5352C170.892 44.7489 171.424 44.1421 172.114 43.7015L171.576 42.8585C170.72 43.4046 170.066 44.1578 169.614 45.1048L170.517 45.5352ZM172.116 43.7004C172.81 43.2533 173.646 43.02 174.645 43.02V42.02C173.484 42.02 172.454 42.2933 171.575 42.8596L172.116 43.7004ZM174.645 43.02C175.585 43.02 176.374 43.2233 177.031 43.6108L177.539 42.7492C176.703 42.2567 175.733 42.02 174.645 42.02V43.02ZM177.037 43.6141C177.69 43.9873 178.196 44.5355 178.555 45.2778L179.455 44.8422C179.015 43.9312 178.374 43.2261 177.533 42.7459L177.037 43.6141ZM178.56 45.2865C178.93 46.0147 179.125 46.9067 179.125 47.98H180.125C180.125 46.7866 179.908 45.7319 179.451 44.8335L178.56 45.2865ZM179.125 47.98C179.125 48.4062 179.106 48.7644 179.069 49.058L180.061 49.182C180.105 48.8356 180.125 48.4338 180.125 47.98H179.125ZM179.565 48.62H172.685V49.62H179.565V48.62ZM174.645 44.14C173.929 44.14 173.323 44.4155 172.877 44.9647L173.653 45.5953C173.9 45.2912 174.215 45.14 174.645 45.14V44.14ZM172.882 44.9587C172.439 45.4875 172.217 46.2493 172.147 47.1617L173.144 47.2383C173.207 46.4173 173.399 45.8992 173.648 45.6013L172.882 44.9587ZM172.645 47.7H176.545V46.7H172.645V47.7ZM177.045 47.1922C177.031 46.2926 176.858 45.5298 176.452 44.982C176.024 44.406 175.394 44.14 174.645 44.14V45.14C175.137 45.14 175.443 45.3007 175.649 45.578C175.876 45.8835 176.033 46.4008 176.045 47.2078L177.045 47.1922ZM13.42 76.04L13.0664 75.6864L13.061 75.6919L13.42 76.04ZM16.56 76.04L16.201 76.3881L16.2064 76.3936L16.56 76.04ZM16.56 79.18L16.2064 78.8264L16.2011 78.8319L16.56 79.18ZM13.42 79.18L13.061 79.5281L13.0664 79.5336L13.42 79.18ZM13.28 77.6C13.28 77.133 13.4406 76.737 13.779 76.3881L13.061 75.6919C12.5461 76.223 12.28 76.867 12.28 77.6H13.28ZM13.7736 76.3936C14.1213 76.0458 14.5214 75.88 15 75.88V74.88C14.2519 74.88 13.5987 75.1542 13.0664 75.6864L13.7736 76.3936ZM15 75.88C15.4782 75.88 15.8686 76.0453 16.2011 76.3881L16.919 75.6919C16.398 75.1547 15.7485 74.88 15 74.88V75.88ZM16.2064 76.3936C16.5566 76.7437 16.72 77.138 16.72 77.6H17.72C17.72 76.862 17.4434 76.2163 16.9136 75.6864L16.2064 76.3936ZM16.72 77.6C16.72 78.0786 16.5542 78.4787 16.2064 78.8264L16.9136 79.5336C17.4458 79.0013 17.72 78.3481 17.72 77.6H16.72ZM16.2011 78.8319C15.8686 79.1747 15.4782 79.34 15 79.34V80.34C15.7485 80.34 16.398 80.0653 16.919 79.5281L16.2011 78.8319ZM15 79.34C14.5214 79.34 14.1213 79.1742 13.7736 78.8264L13.0664 79.5336C13.5987 80.0658 14.2519 80.34 15 80.34V79.34ZM13.779 78.8319C13.4428 78.4853 13.28 78.0835 13.28 77.6H12.28C12.28 78.3432 12.5439 78.9947 13.061 79.5281L13.779 78.8319ZM42.0122 70L41.5901 70.2681L41.5918 70.2707L42.0122 70ZM42.4522 77.1L41.9855 76.9205L41.984 76.9244L42.4522 77.1ZM41.0522 79.12L41.3604 79.5138L41.3656 79.5096L41.0522 79.12ZM36.3522 78.74L36.7255 78.4074L35.8522 77.4271V78.74H36.3522ZM36.3522 83.6L36.4057 84.0971L36.8522 84.0491V83.6H36.3522ZM33.1922 83.94H32.6922V84.4967L33.2457 84.4371L33.1922 83.94ZM33.1922 68.88V68.38H32.6922V68.88H33.1922ZM35.9922 68.88L36.4887 68.8211L36.4364 68.38H35.9922V68.88ZM36.1322 70.06L35.6357 70.1189L35.777 71.3104L36.5236 70.3711L36.1322 70.06ZM37.5122 68.9L37.2932 68.4505L37.2886 68.4528L37.5122 68.9ZM36.3522 72.1L35.9228 71.8438L35.8522 71.9621V72.1H36.3522ZM36.3522 76.58H35.8522V76.7391L35.9442 76.869L36.3522 76.58ZM37.0522 77.3L36.7748 77.716L36.788 77.7248L36.8017 77.7327L37.0522 77.3ZM39.2322 76.74L38.7987 76.4908L38.7967 76.4943L39.2322 76.74ZM39.2922 71.6L38.8523 71.8378L38.8551 71.8428L39.2922 71.6ZM39.0722 69.02C40.2628 69.02 41.0694 69.4483 41.5901 70.2681L42.4343 69.7319C41.7016 68.5784 40.5483 68.02 39.0722 68.02V69.02ZM41.5918 70.2707C42.1451 71.1301 42.4522 72.4069 42.4522 74.16H43.4522C43.4522 72.3131 43.1326 70.8166 42.4326 69.7293L41.5918 70.2707ZM42.4522 74.16C42.4522 75.2026 42.2933 76.1203 41.9855 76.9205L42.9189 77.2795C43.2778 76.3464 43.4522 75.304 43.4522 74.16H42.4522ZM41.984 76.9244C41.6905 77.7073 41.2719 78.3016 40.7388 78.7304L41.3656 79.5096C42.0591 78.9517 42.5739 78.1994 42.9204 77.2756L41.984 76.9244ZM40.744 78.7262C40.2258 79.1319 39.6098 79.34 38.8722 79.34V80.34C39.8145 80.34 40.6519 80.0681 41.3603 79.5138L40.744 78.7262ZM38.8722 79.34C37.9808 79.34 37.2792 79.0289 36.7255 78.4074L35.9789 79.0726C36.7318 79.9178 37.7102 80.34 38.8722 80.34V79.34ZM35.8522 78.74V83.6H36.8522V78.74H35.8522ZM36.2987 83.1029L33.1387 83.4429L33.2457 84.4371L36.4057 84.0971L36.2987 83.1029ZM33.6922 83.94V68.88H32.6922V83.94H33.6922ZM33.1922 69.38H35.9922V68.38H33.1922V69.38ZM35.4957 68.9389L35.6357 70.1189L36.6287 70.0011L36.4887 68.8211L35.4957 68.9389ZM36.5236 70.3711C36.8993 69.8984 37.3046 69.5628 37.7358 69.3472L37.2886 68.4528C36.7064 68.7439 36.1917 69.1816 35.7408 69.7489L36.5236 70.3711ZM37.7312 69.3495C38.1907 69.1256 38.6362 69.02 39.0722 69.02V68.02C38.4681 68.02 37.8737 68.1677 37.2932 68.4505L37.7312 69.3495ZM38.0922 70.36C37.1779 70.36 36.4624 70.9396 35.9228 71.8438L36.7815 72.3562C37.2286 71.6071 37.6731 71.36 38.0922 71.36V70.36ZM35.8522 72.1V76.58H36.8522V72.1H35.8522ZM35.9442 76.869C36.1943 77.2222 36.4692 77.5122 36.7748 77.716L37.3295 76.884C37.1552 76.7678 36.9634 76.5778 36.7602 76.291L35.9442 76.869ZM36.8017 77.7327C37.1381 77.9275 37.5127 78.02 37.9122 78.02V77.02C37.6717 77.02 37.4729 76.9658 37.3027 76.8673L36.8017 77.7327ZM37.9122 78.02C38.6832 78.02 39.2876 77.6593 39.6677 76.9857L38.7967 76.4943C38.5901 76.8607 38.3145 77.02 37.9122 77.02V78.02ZM39.6656 76.9892C40.0397 76.3387 40.1922 75.3825 40.1922 74.2H39.1922C39.1922 75.3375 39.038 76.0746 38.7987 76.4908L39.6656 76.9892ZM40.1922 74.2C40.1922 72.9446 40.0643 71.9603 39.7293 71.3572L38.8551 71.8428C39.0534 72.1997 39.1922 72.9487 39.1922 74.2H40.1922ZM39.732 71.3622C39.5651 71.0534 39.3424 70.7969 39.0546 70.6194C38.7655 70.4411 38.4387 70.36 38.0922 70.36V71.36C38.279 71.36 38.4189 71.4022 38.5297 71.4706C38.6419 71.5398 38.7526 71.6532 38.8523 71.8378L39.732 71.3622ZM65.0844 77.3L65.5185 77.0519H65.5185L65.0844 77.3ZM65.6244 77.72L66.101 77.8712L66.2454 77.416L65.7972 77.2508L65.6244 77.72ZM64.9644 79.8L64.9126 80.2973L65.3177 80.3395L65.441 79.9512L64.9644 79.8ZM63.3644 79.38L63.1297 79.8217L63.1408 79.8272L63.3644 79.38ZM62.3644 78.4L62.8002 78.1549L62.4498 77.532L61.9847 78.0746L62.3644 78.4ZM60.8444 79.48L61.0266 79.9457L61.0353 79.9421L60.8444 79.48ZM56.2644 78.92L55.9182 79.2809L55.9222 79.2845L56.2644 78.92ZM56.6444 73.84L56.9287 74.2513L56.9327 74.2485L56.6444 73.84ZM61.8844 72.88V73.38H62.3844V72.88H61.8844ZM58.4244 71.02L58.5106 71.5126L58.5201 71.5107L58.4244 71.02ZM56.8644 71.42L56.3914 71.5822L56.5535 72.0548L57.0262 71.8931L56.8644 71.42ZM56.1444 69.32L55.9698 68.8515L55.5135 69.0215L55.6714 69.4822L56.1444 69.32ZM58.2644 68.74L58.3538 69.232L58.3607 69.2306L58.2644 68.74ZM61.0444 77.28L61.2872 77.7171L61.2924 77.7141L61.0444 77.28ZM61.8844 76.42L62.3283 76.6502L62.3844 76.5419V76.42H61.8844ZM61.8844 74.68H62.3844V74.18H61.8844V74.68ZM58.9044 77.24L58.5609 77.6036L58.571 77.6126L58.9044 77.24ZM64.4244 76.44C64.4244 76.8541 64.4782 77.2471 64.6503 77.5481L65.5185 77.0519C65.4772 76.9796 65.4244 76.7992 65.4244 76.44H64.4244ZM64.6503 77.5481C64.829 77.8609 65.1168 78.0659 65.4515 78.1892L65.7972 77.2508C65.6253 77.1875 65.5531 77.1125 65.5185 77.0519L64.6503 77.5481ZM65.1478 77.5688L64.4878 79.6488L65.441 79.9512L66.101 77.8712L65.1478 77.5688ZM65.0162 79.3027C64.4164 79.2402 63.9457 79.1116 63.588 78.9328L63.1408 79.8272C63.6364 80.075 64.2323 80.2264 64.9126 80.2973L65.0162 79.3027ZM63.5989 78.9384C63.2579 78.7573 62.9939 78.4993 62.8002 78.1549L61.9286 78.6451C62.2148 79.154 62.6175 79.5494 63.1298 79.8216L63.5989 78.9384ZM61.9847 78.0746C61.64 78.4768 61.1999 78.7922 60.6535 79.0179L61.0353 79.9421C61.7155 79.6612 62.2887 79.2566 62.744 78.7254L61.9847 78.0746ZM60.6622 79.0144C60.1099 79.2305 59.5187 79.34 58.8844 79.34V80.34C59.6367 80.34 60.3522 80.2095 61.0266 79.9456L60.6622 79.0144ZM58.8844 79.34C57.8887 79.34 57.1477 79.0635 56.6066 78.5555L55.9222 79.2845C56.6877 80.0032 57.6934 80.34 58.8844 80.34V79.34ZM56.6105 78.5592C56.0648 78.0358 55.7844 77.364 55.7844 76.5H54.7844C54.7844 77.6093 55.1572 78.5509 55.9183 79.2808L56.6105 78.5592ZM55.7844 76.5C55.7844 75.5097 56.1634 74.7802 56.9287 74.2513L56.3601 73.4287C55.312 74.1531 54.7844 75.197 54.7844 76.5H55.7844ZM56.9327 74.2485C57.7235 73.6903 58.8808 73.38 60.4644 73.38V72.38C58.768 72.38 57.3786 72.7097 56.356 73.4315L56.9327 74.2485ZM60.4644 73.38H61.8844V72.38H60.4644V73.38ZM62.3844 72.88V72.5H61.3844V72.88H62.3844ZM62.3844 72.5C62.3844 71.8387 62.1664 71.2659 61.6671 70.8759C61.1913 70.5044 60.5357 70.36 59.7844 70.36V71.36C60.433 71.36 60.8274 71.489 61.0516 71.6641C61.2523 71.8208 61.3844 72.0679 61.3844 72.5H62.3844ZM59.7844 70.36C59.3798 70.36 58.8917 70.4194 58.3286 70.5293L58.5201 71.5107C59.0504 71.4073 59.4689 71.36 59.7844 71.36V70.36ZM58.3382 70.5275C57.7794 70.6253 57.2341 70.765 56.7025 70.9469L57.0262 71.8931C57.5079 71.7283 58.0026 71.6014 58.5106 71.5125L58.3382 70.5275ZM57.3373 71.2578L56.6173 69.1578L55.6714 69.4822L56.3914 71.5822L57.3373 71.2578ZM56.3189 69.7885C56.9706 69.5458 57.6487 69.3601 58.3538 69.2319L58.1749 68.2481C57.4134 68.3865 56.6782 68.5876 55.9698 68.8515L56.3189 69.7885ZM58.3607 69.2306C59.0837 69.0886 59.724 69.02 60.2844 69.02V68.02C59.6448 68.02 58.9384 68.098 58.168 68.2494L58.3607 69.2306ZM60.2844 69.02C61.7765 69.02 62.8028 69.3244 63.4496 69.8485C64.0762 70.3563 64.4244 71.1348 64.4244 72.28H65.4244C65.4244 70.9185 64.9992 69.8171 64.0792 69.0715C63.1792 68.3423 61.8856 68.02 60.2844 68.02V69.02ZM64.4244 72.28V76.44H65.4244V72.28H64.4244ZM59.9644 78.08C60.4209 78.08 60.8637 77.9523 61.2872 77.7171L60.8016 76.8429C60.505 77.0077 60.2278 77.08 59.9644 77.08V78.08ZM61.2924 77.7141C61.744 77.4561 62.0946 77.1008 62.3283 76.6502L61.4405 76.1898C61.3008 76.4592 61.0914 76.6773 60.7963 76.8459L61.2924 77.7141ZM62.3844 76.42V74.68H61.3844V76.42H62.3844ZM61.8844 74.18H61.1044V75.18H61.8844V74.18ZM61.1044 74.18C60.2151 74.18 59.4633 74.316 58.9194 74.656C58.3362 75.0205 58.0444 75.5868 58.0444 76.28H59.0444C59.0444 75.9066 59.1792 75.6729 59.4494 75.504C59.7587 75.3106 60.2869 75.18 61.1044 75.18V74.18ZM58.0444 76.28C58.0444 76.794 58.197 77.2597 58.5611 77.6035L59.2477 76.8765C59.1317 76.767 59.0444 76.5927 59.0444 76.28H58.0444ZM58.571 77.6126C58.9429 77.9454 59.4297 78.08 59.9644 78.08V77.08C59.5924 77.08 59.3725 76.9879 59.2378 76.8674L58.571 77.6126ZM88.6366 68.88L89.1324 68.9448L89.1826 68.5599L88.8223 68.4158L88.6366 68.88ZM88.0566 73.32V73.82H88.4955L88.5524 73.3848L88.0566 73.32ZM86.0566 73.32H85.5566V73.82H86.0566V73.32ZM86.0566 71.36H86.5566V70.7609L85.9671 70.8681L86.0566 71.36ZM84.4966 72.32L84.1156 71.9962L84.4966 72.32ZM83.4366 74.34L82.9592 74.1913L82.9366 74.2639V74.34H83.4366ZM83.4366 77.38H82.9366V77.88H83.4366V77.38ZM85.5366 77.38H86.0366V76.88H85.5366V77.38ZM85.5366 79.5V80H86.0366V79.5H85.5366ZM78.8766 79.5H78.3766V80H78.8766V79.5ZM78.8766 77.38V76.88H78.3766V77.38H78.8766ZM80.2766 77.38V77.88H80.7766V77.38H80.2766ZM80.2766 70.98H80.7766V70.48H80.2766V70.98ZM78.8766 70.98H78.3766V71.48H78.8766V70.98ZM78.8766 68.88V68.38H78.3766V68.88H78.8766ZM82.6966 68.88L83.1833 68.7655L83.0926 68.38H82.6966V68.88ZM83.2566 71.26L82.7699 71.3745L83.1188 72.8576L83.7165 71.4561L83.2566 71.26ZM84.7166 69.24L85.0166 69.64L85.0223 69.6356L84.7166 69.24ZM86.8766 69.06C87.4602 69.06 87.983 69.1571 88.4509 69.3442L88.8223 68.4158C88.2235 68.1763 87.5729 68.06 86.8766 68.06V69.06ZM88.1408 68.8152L87.5608 73.2552L88.5524 73.3848L89.1324 68.9448L88.1408 68.8152ZM88.0566 72.82H86.0566V73.82H88.0566V72.82ZM86.5566 73.32V71.36H85.5566V73.32H86.5566ZM85.9671 70.8681C85.2477 70.9989 84.6301 71.3908 84.1156 71.9962L84.8775 72.6438C85.2697 72.1825 85.6921 71.9345 86.146 71.8519L85.9671 70.8681ZM84.1156 71.9962C83.6103 72.5906 83.2283 73.3273 82.9592 74.1913L83.9139 74.4887C84.1515 73.726 84.4762 73.116 84.8775 72.6438L84.1156 71.9962ZM82.9366 74.34V77.38H83.9366V74.34H82.9366ZM83.4366 77.88H85.5366V76.88H83.4366V77.88ZM85.0366 77.38V79.5H86.0366V77.38H85.0366ZM85.5366 79H78.8766V80H85.5366V79ZM79.3766 79.5V77.38H78.3766V79.5H79.3766ZM78.8766 77.88H80.2766V76.88H78.8766V77.88ZM80.7766 77.38V70.98H79.7766V77.38H80.7766ZM80.2766 70.48H78.8766V71.48H80.2766V70.48ZM79.3766 70.98V68.88H78.3766V70.98H79.3766ZM78.8766 69.38H82.6966V68.38H78.8766V69.38ZM82.2099 68.9945L82.7699 71.3745L83.7433 71.1455L83.1833 68.7655L82.2099 68.9945ZM83.7165 71.4561C84.0801 70.6035 84.5203 70.0122 85.0166 69.64L84.4166 68.84C83.7395 69.3478 83.2063 70.1032 82.7966 71.0639L83.7165 71.4561ZM85.0223 69.6356C85.5085 69.2599 86.1164 69.06 86.8766 69.06V68.06C85.93 68.06 85.0979 68.3134 84.4108 68.8444L85.0223 69.6356ZM111.129 78.88L111.398 79.3011L111.782 79.0558L111.573 78.6511L111.129 78.88ZM104.569 78.8L104.212 79.1501L104.215 79.1536L104.569 78.8ZM103.549 71.06H104.049V70.56H103.549V71.06ZM101.329 71.06H100.829V71.56H101.329V71.06ZM101.329 68.88V68.38H100.829V68.88H101.329ZM103.549 68.88V69.38H104.049V68.88H103.549ZM103.549 66.58L103.489 66.0836L103.049 66.1365V66.58H103.549ZM106.709 66.2H107.209V65.6363L106.649 65.7036L106.709 66.2ZM106.709 68.88H106.209V69.38H106.709V68.88ZM110.129 68.88L110.623 68.9526L110.707 68.38H110.129V68.88ZM109.809 71.06V71.56H110.241L110.303 71.1326L109.809 71.06ZM106.709 71.06V70.56H106.209V71.06H106.709ZM107.069 77L107.412 76.6365L107.069 77ZM110.089 76.86L110.533 76.6311L110.297 76.1714L109.845 76.4234L110.089 76.86ZM110.859 78.4589C109.949 79.0417 108.884 79.34 107.649 79.34V80.34C109.053 80.34 110.309 79.9983 111.398 79.3011L110.859 78.4589ZM107.649 79.34C106.369 79.34 105.49 79.0146 104.922 78.4464L104.215 79.1536C105.034 79.9721 106.208 80.34 107.649 80.34V79.34ZM104.926 78.4499C104.362 77.875 104.049 77.042 104.049 75.88H103.049C103.049 77.2246 103.416 78.3384 104.212 79.1501L104.926 78.4499ZM104.049 75.88V71.06H103.049V75.88H104.049ZM103.549 70.56H101.329V71.56H103.549V70.56ZM101.829 71.06V68.88H100.829V71.06H101.829ZM101.329 69.38H103.549V68.38H101.329V69.38ZM104.049 68.88V66.58H103.049V68.88H104.049ZM103.608 67.0764L106.768 66.6964L106.649 65.7036L103.489 66.0836L103.608 67.0764ZM106.209 66.2V68.88H107.209V66.2H106.209ZM106.709 69.38H110.129V68.38H106.709V69.38ZM109.634 68.8074L109.314 70.9874L110.303 71.1326L110.623 68.9526L109.634 68.8074ZM109.809 70.56H106.709V71.56H109.809V70.56ZM106.209 71.06V75.88H107.209V71.06H106.209ZM106.209 75.88C106.209 76.4602 106.34 76.9999 106.725 77.3635L107.412 76.6365C107.317 76.5467 107.209 76.3398 107.209 75.88H106.209ZM106.725 77.3635C107.101 77.7183 107.642 77.84 108.229 77.84V76.84C107.748 76.84 107.516 76.735 107.412 76.6365L106.725 77.3635ZM108.229 77.84C108.979 77.84 109.683 77.6588 110.332 77.2966L109.845 76.4234C109.347 76.7012 108.811 76.84 108.229 76.84V77.84ZM109.644 77.0889L110.684 79.1089L111.573 78.6511L110.533 76.6311L109.644 77.0889ZM130.861 79.5L131.335 79.6594L131.335 79.6581L130.861 79.5ZM128.721 82.72L128.418 82.322L128.415 82.3247L128.721 82.72ZM124.921 83.96L124.427 84.0393L124.499 84.4857L124.95 84.4591L124.921 83.96ZM124.561 81.72L124.496 81.2243L123.986 81.2914L124.067 81.7993L124.561 81.72ZM126.801 81.04L126.529 80.6205L126.524 80.624L126.801 81.04ZM127.981 79.5L128.443 79.6917L128.73 79H127.981V79.5ZM126.881 79.5L126.404 79.6508L126.515 80H126.881V79.5ZM123.521 68.88V68.38H122.838L123.044 69.0308L123.521 68.88ZM126.861 68.88L127.347 68.7635L127.255 68.38H126.861V68.88ZM128.921 77.48L128.435 77.5965L129.405 77.606L128.921 77.48ZM131.161 68.88V68.38H130.774L130.677 68.754L131.161 68.88ZM134.401 68.88L134.875 69.0381L135.095 68.38H134.401V68.88ZM130.387 79.3406C129.93 80.6976 129.266 81.6769 128.418 82.322L129.024 83.118C130.069 82.3231 130.831 81.1558 131.335 79.6594L130.387 79.3406ZM128.415 82.3247C127.57 82.979 126.41 83.3715 124.892 83.4609L124.95 84.4591C126.605 84.3618 127.978 83.9276 129.027 83.1153L128.415 82.3247ZM125.415 83.8807L125.055 81.6407L124.067 81.7993L124.427 84.0393L125.415 83.8807ZM124.626 82.2157C125.665 82.079 126.503 81.8396 127.078 81.456L126.524 80.624C126.139 80.8804 125.483 81.0943 124.496 81.2243L124.626 82.2157ZM127.073 81.4595C127.673 81.0701 128.122 80.4638 128.443 79.6917L127.519 79.3083C127.253 79.9495 126.915 80.3699 126.529 80.6205L127.073 81.4595ZM127.981 79H126.881V80H127.981V79ZM127.358 79.3492L123.998 68.7292L123.044 69.0308L126.404 79.6508L127.358 79.3492ZM123.521 69.38H126.861V68.38H123.521V69.38ZM126.375 68.9965L128.435 77.5965L129.407 77.3635L127.347 68.7635L126.375 68.9965ZM129.405 77.606L131.645 69.006L130.677 68.754L128.437 77.354L129.405 77.606ZM131.161 69.38H134.401V68.38H131.161V69.38ZM133.927 68.7219L130.387 79.3419L131.335 79.6581L134.875 69.0381L133.927 68.7219Z" fill="black" mask="url(#path-15-outside-1_603_113)"/>
<circle cx="21" cy="23.5" r="3" fill="black" fill-opacity="0.67"/>
<path d="M21 24L21.9736 17.3239C22.242 15.4834 24.9469 15.6408 25 17.5V17.5" stroke="#B6B6B6" stroke-width="3"/>
<path d="M23 23.5C23 24.0523 22.1046 24.5 21 24.5C19.8954 24.5 19 24.0523 19 23.5C19 22.9477 19.8954 23.5 21 23.5C22.1046 23.5 23 22.9477 23 23.5Z" fill="#432A2A"/>
<circle cx="162" cy="23.5" r="3" fill="black" fill-opacity="0.67"/>
<path d="M162 24L162.974 17.3239C163.242 15.4834 165.947 15.6408 166 17.5V17.5" stroke="#B6B6B6" stroke-width="3"/>
<path d="M164 23.5C164 24.0523 163.105 24.5 162 24.5C160.895 24.5 160 24.0523 160 23.5C160 22.9477 160.895 23.5 162 23.5C163.105 23.5 164 22.9477 164 23.5Z" fill="#432A2A"/>
<defs>
<linearGradient id="paint0_linear_603_113" x1="159" y1="56.5" x2="184" y2="56.5" gradientUnits="userSpaceOnUse">
<stop stop-color="white" stop-opacity="0"/>
<stop offset="1" stop-color="white"/>
</linearGradient>
<linearGradient id="paint1_linear_603_113" x1="26" y1="111.5" x2="49" y2="111.5" gradientUnits="userSpaceOnUse">
<stop stop-color="white" stop-opacity="0"/>
<stop offset="1" stop-color="white"/>
</linearGradient>
<linearGradient id="paint2_linear_603_113" x1="169" y1="154.5" x2="178" y2="154.5" gradientUnits="userSpaceOnUse">
<stop stop-color="white" stop-opacity="0"/>
<stop offset="1" stop-color="white"/>
</linearGradient>
</defs>
</svg>
